<?xml version="1.0" standalone="no"?><!DOCTYPE svg PUBLIC "-//W3C//DTD SVG 1.1//EN" "http://www.w3.org/Graphics/SVG/1.1/DTD/svg11.dtd"><svg t="1722301687032" class="icon" viewBox="0 0 1024 1024" version="1.1" xmlns="http://www.w3.org/2000/svg" p-id="2438" width="128" height="128" xmlns:xlink="http://www.w3.org/1999/xlink"><path d="M904.452485 146.331704c-13.371059-81.616508-204.407099-146.331704-438.171997-146.331704S41.479551 64.715196 28.0902 146.331704h-0.804825v676.784132h0.823116c13.371059 81.598217 204.407099 146.331704 438.171997 146.331705s424.800937-64.733488 438.171997-146.331705h0.823116V146.331704h-0.823116z" fill="#545E73" p-id="2439"></path><path d="M466.280488 749.949984c-242.453342 0-438.995113-69.617308-438.995113-155.477435V823.115836h0.823116c13.371059 81.598217 204.407099 146.331704 438.171997 146.331705s424.800937-64.733488 438.171997-146.331705h0.823116V594.472549c0 85.860127-196.54177 155.477436-438.995113 155.477435zM27.285375 585.326817v9.145732c0-3.072966 0.329246-6.109349 0.823116-9.145732h-0.823116zM904.452485 585.326817c0.49387 3.036383 0.823116 6.072766 0.823116 9.145732V585.326817h-0.823116z" fill="#38454F" p-id="2440"></path><path d="M466.280488 530.452428c-242.453342 0-438.995113-69.617308-438.995113-155.477436V603.61828h0.823116c13.371059 81.598217 204.407099 146.331704 438.171997 146.331704s424.800937-64.733488 438.171997-146.331704h0.823116V374.974992c0 85.860127-196.54177 155.477436-438.995113 155.477436zM27.285375 365.829261v9.145731c0-3.072966 0.329246-6.109349 0.823116-9.145731h-0.823116zM904.452485 365.829261c0.49387 3.036383 0.823116 6.072766 0.823116 9.145731V365.829261h-0.823116z" fill="#556080" p-id="2441"></path><path d="M27.285375 155.477436a438.995113 155.477436 0 1 0 877.990226 0 438.995113 155.477436 0 1 0-877.990226 0Z" fill="#91BAE1" p-id="2442"></path><path d="M466.280488 310.954872c-242.453342 0-438.995113-69.617308-438.995113-155.477436V384.120724h0.823116c13.371059 81.598217 204.407099 146.331704 438.171997 146.331704s424.800937-64.733488 438.171997-146.331704h0.823116V155.477436c0 85.860127-196.54177 155.477436-438.995113 155.477436zM27.285375 146.331704v9.145732c0-3.072966 0.329246-6.109349 0.823116-9.145732h-0.823116zM904.452485 146.331704c0.49387 3.036383 0.823116 6.072766 0.823116 9.145732V146.331704h-0.823116z" fill="#8697CB" p-id="2443"></path><path d="M736.573437 746.218526m-179.183171 0a179.183172 179.183172 0 1 0 358.366343 0 179.183172 179.183172 0 1 0-358.366343 0Z" fill="#D0E8F9" p-id="2444"></path><path d="M801.563006 579.3638L569.737003 811.189803a179.677041 179.677041 0 0 0 63.928663 81.561633L883.124639 643.310755a179.585584 179.585584 0 0 0-81.561633-63.946955z" fill="#EAF6FD" p-id="2445"></path><path d="M991.647889 993.061819l-109.200034-114.211895a196.450313 196.450313 0 0 0 51.581926-132.631398C934.048072 637.329446 845.462517 548.743891 736.573437 548.743891s-197.474635 88.585555-197.474635 197.474635 88.585555 197.474635 197.474635 197.474635c44.667753 0 85.76867-15.072166 118.876219-40.168053l109.767069 114.797222a18.236589 18.236589 0 0 0 25.864129 0.585327 18.273172 18.273172 0 0 0 0.567035-25.845838zM575.681729 746.218526c0-88.713596 72.178113-160.891709 160.891708-160.891709s160.891709 72.178113 160.891709 160.891709-72.178113 160.891709-160.891709 160.891709-160.891709-72.178113-160.891708-160.891709z" fill="#B1D3EF" p-id="2446"></path></svg>